<svg version="1.1" id="Layer_1" xmlns="http://www.w3.org/2000/svg" x="0" y="0" viewBox="0 0 180 180" style="enable-background:new 0 0 180 180" xml:space="preserve"><style>.st0{fill:#ff9975}.st1{fill:#ff916e}.st2{fill:#45525b}.st3{fill:#192e2d}.st4{fill:#fff}.st6{fill:#cfdbe5}.st7{fill:#ef7048}</style><path class="st0" d="M154.6 90c0 35.7-28.9 64.6-64.6 64.6-35.7 0-64.6-28.9-64.6-64.6 0-35.7 28.9-64.6 64.6-64.6 35.7 0 64.6 28.9 64.6 64.6z" id="XMLID_145_"/><path class="st1" d="M101.2 127.8h23.2c2.1 0 3.8 1.7 3.8 3.8 0 2.1-1.7 3.8-3.8 3.8h-23.2c-2.1 0-3.8-1.7-3.8-3.8 0-2.1 1.7-3.8 3.8-3.8zM104.8 112.9h21.6c2.1 0 3.8 1.7 3.8 3.8 0 2.1-1.7 3.8-3.8 3.8h-21.6c-2.1 0-3.8-1.7-3.8-3.8 0-2 1.7-3.8 3.8-3.8zM90.4 112.9H96c2.1 0 3.8 1.7 3.8 3.8 0 2.1-1.7 3.8-3.8 3.8h-5.6c-2.1 0-3.8-1.7-3.8-3.8 0-2 1.7-3.8 3.8-3.8z"/><path class="st1" d="M108.9 123.8v.9c0 1.9-1.5 3.4-3.4 3.4H124c-1.9 0-3.4-1.5-3.4-3.4v-.9c0-1.9 1.5-3.4 3.4-3.4h-18.5c1.9 0 3.4 1.5 3.4 3.4zM54.2 125.7h23.2c2.1 0 3.8 1.7 3.8 3.8 0 2.1-1.7 3.8-3.8 3.8H54.2c-2.1 0-3.8-1.7-3.8-3.8 0-2.1 1.7-3.8 3.8-3.8zM57.8 110.8h21.6c2.1 0 3.8 1.7 3.8 3.8 0 2.1-1.7 3.8-3.8 3.8H57.8c-2.1 0-3.8-1.7-3.8-3.8 0-2.1 1.7-3.8 3.8-3.8zM43.5 110.8h5.6c2.1 0 3.8 1.7 3.8 3.8 0 2.1-1.7 3.8-3.8 3.8h-5.6c-2.1 0-3.8-1.7-3.8-3.8-.1-2.1 1.6-3.8 3.8-3.8z"/><path class="st1" d="M61.9 121.6v.9c0 1.9-1.5 3.4-3.4 3.4H77c-1.9 0-3.4-1.5-3.4-3.4v-.9c0-1.9 1.5-3.4 3.4-3.4H58.6c1.8 0 3.3 1.5 3.3 3.4z"/><g><path class="st1" d="M115.7 87.2H139c2.1 0 3.8 1.7 3.8 3.8 0 2.1-1.7 3.8-3.8 3.8h-23.2c-2.1 0-3.8-1.7-3.8-3.8-.1-2.1 1.6-3.8 3.7-3.8zM119.4 72.3H141c2.1 0 3.8 1.7 3.8 3.8 0 2.1-1.7 3.8-3.8 3.8h-21.6c-2.1 0-3.8-1.7-3.8-3.8-.1-2.1 1.6-3.8 3.8-3.8zM105 72.3h5.6c2.1 0 3.8 1.7 3.8 3.8 0 2.1-1.7 3.8-3.8 3.8H105c-2.1 0-3.8-1.7-3.8-3.8 0-2.1 1.7-3.8 3.8-3.8z"/><path class="st1" d="M123.5 83.1v.9c0 1.9-1.5 3.4-3.4 3.4h18.5c-1.9 0-3.4-1.5-3.4-3.4v-.9c0-1.9 1.5-3.4 3.4-3.4h-18.5c1.8 0 3.4 1.5 3.4 3.4z"/></g><g><path class="st1" d="M46.4 84.9h23.2c2.1 0 3.8 1.7 3.8 3.8 0 2.1-1.7 3.8-3.8 3.8H46.4c-2.1 0-3.8-1.7-3.8-3.8 0-2.1 1.7-3.8 3.8-3.8zM50 70h21.6c2.1 0 3.8 1.7 3.8 3.8 0 2.1-1.7 3.8-3.8 3.8H50c-2.1 0-3.8-1.7-3.8-3.8 0-2.1 1.7-3.8 3.8-3.8zM35.7 70h5.6c2.1 0 3.8 1.7 3.8 3.8 0 2.1-1.7 3.8-3.8 3.8h-5.6c-2.1 0-3.8-1.7-3.8-3.8-.1-2.1 1.6-3.8 3.8-3.8z"/><path class="st1" d="M54.1 80.8v.9c0 1.9-1.5 3.4-3.4 3.4h18.5c-1.9 0-3.4-1.5-3.4-3.4v-.9c0-1.9 1.5-3.4 3.4-3.4H50.8c1.8 0 3.3 1.5 3.3 3.4z"/></g><g><path class="st2" d="m130 92.5 7.1.2.5-15-7.1-.2c-.9-5.8-2.9-11.2-5.9-15.9l5.2-4.8-10.2-11-5.2 4.8c-3.6-2.6-7.6-4.7-11.9-6.1-1.1-.4-2.3-.7-3.4-.9H99l.3-7.1-15-.5-.3 7c-1.5.2-3 .5-4.5.9-4.1 1.1-8 2.8-11.5 5l-4.8-5.2-11 10.3 4.8 5.2c-3.4 4.5-5.8 9.8-7.1 15.5l-7.1-.3-.5 15 7.1.3c.9 5.8 2.9 11.2 5.9 15.9l-5.2 4.8 10.2 11 5.2-4.8c4.5 3.4 9.8 5.8 15.5 7.1l-.3 7.1 14.9.5.3-7.1c1.5-.2 3-.5 4.5-.9 4.1-1.1 8-2.8 11.5-5l4.8 5.2 10.9-10.2-4.8-5.2c3.5-4.7 5.9-9.9 7.2-15.6zm-48.9 23.6c-18-4.9-28.6-23.4-23.7-41.4 4.9-18 23.4-28.6 41.4-23.7 18 4.9 28.6 23.4 23.7 41.4-4.8 18-23.4 28.6-41.4 23.7z" id="XMLID_144_"/><path class="st3" d="M97.2 48.2c-18-4.9-36.5 5.7-41.4 23.7-2.6 9.6-.8 19.3 4.1 27-3.7-7.2-4.8-15.7-2.5-24.2 4.9-18 23.4-28.6 41.4-23.7 8.4 2.3 15.2 7.6 19.6 14.4-4.1-8.2-11.6-14.6-21.2-17.2zM52.2 54l2.8 3c.1-.2.3-.4.4-.6l-2.7-2.9-.5.5zM135.5 89.9l-7.1-.3c-1.3 5.7-3.7 11-7.1 15.5l2.1 2.2c3.1-4.4 5.4-9.4 6.6-14.9l7.1.2.5-15-1.7-.1-.4 12.4zM128.9 74.7h1.1c-1-4.6-2.8-9-5.3-12.9 2.1 4 3.5 8.3 4.2 12.9zM53.8 102.7c0-.1-.1-.2-.1-.3 0 .1 0 .2.1.3zM58.8 118.5l-8-8.6-.5.5 10.2 11 5.2-4.8c4.1 3 8.8 5.4 15.5 7.1l.1-2.2c-5.7-1.3-12.7-4.3-17.2-7.7l-5.3 4.7zM115.2 120.5l-4.8-5.2c-3.5 2.2-7.4 3.9-11.5 5-1.5.4-3 .7-4.5.9l-.2 7.1-13.2-.5-.1 2.8 14.9.5.3-7.1c1.5-.2 3-.5 4.5-.9 4.1-1.1 8-2.8 11.5-5l4.8 5.2 10.9-10.2-2.2-2.3-10.4 9.7zM42.5 86.6l-.1 2.8 6 .2c-.2-.9-.4-1.9-.5-2.8l-5.4-.2zM97.3 40.7h.1c.5.1 1.1.2 1.6.4l.2-4.7-1.7-.1-.2 4.4zM123 58.7c.6.9 1.1 1.9 1.6 2.8l5.2-4.8-2.2-2.3-4.6 4.3z"/></g><g><path class="st4" d="M66.6 37.4c0 1.9-1.5 3.4-3.4 3.4 1.9 0 3.4 1.5 3.4 3.4 0-1.9 1.5-3.4 3.4-3.4-1.9 0-3.4-1.5-3.4-3.4zM126.4 65.3c0 1-.8 1.9-1.9 1.9 1 0 1.9.8 1.9 1.9 0-1 .8-1.9 1.9-1.9-1 0-1.9-.9-1.9-1.9zM51.5 74.4c0 3.1-2.5 5.6-5.6 5.6 3.1 0 5.6 2.5 5.6 5.6 0-3.1 2.5-5.6 5.6-5.6-3.1-.1-5.6-2.6-5.6-5.6zM63.2 44c0 1-.8 1.7-1.7 1.7 1 0 1.7.8 1.7 1.7 0-1 .8-1.7 1.7-1.7-1 0-1.7-.7-1.7-1.7zM131.2 59.6c0 1.6-1.3 2.9-2.9 2.9 1.6 0 2.9 1.3 2.9 2.9 0-1.6 1.3-2.9 2.9-2.9-1.6 0-2.9-1.3-2.9-2.9zM104.5 35.8c0 1-.8 1.9-1.9 1.9 1 0 1.9.8 1.9 1.9 0-1 .8-1.9 1.9-1.9-1 0-1.9-.8-1.9-1.9zM109.2 39.5c0 1.6-1.3 2.9-2.9 2.9 1.6 0 2.9 1.3 2.9 2.9 0-1.6 1.3-2.9 2.9-2.9-1.6 0-2.9-1.3-2.9-2.9z"/></g><g><g id="XMLID_1406_"><path class="st4" d="M90.5 49.4c-18.9 0-34.1 15.3-34.1 34.1 0 6.4 1.8 12.3 4.8 17.4H61c14 21.7 12.6 31.6 12.6 31.6h33.8s-1.5-9.9 12.5-31.6h-.1c3-5.1 4.8-11.1 4.8-17.4 0-18.8-15.3-34.1-34.1-34.1z" id="XMLID_143_"/></g><g id="XMLID_1403_"><path class="st2" d="M95 115.8c-1.1 0-1.9.9-1.9 1.9 0 .8.5 1.5 1.2 1.8v17.8h1.5v-17.8c.7-.3 1.2-1 1.2-1.8-.1-1-1-1.9-2-1.9z" id="XMLID_1405_"/><path class="st2" d="M86 115.8c-1.1 0-1.9.9-1.9 1.9 0 .8.5 1.5 1.2 1.8v17.8h1.5v-17.8c.7-.3 1.2-1 1.2-1.8 0-1-.9-1.9-2-1.9z" id="XMLID_1404_"/></g><g id="XMLID_135_"><g id="XMLID_1401_"><path style="fill:#657077" d="m73.6 141.8 3.6 6.2h26.6l3.6-6.2V133H73.6z" id="XMLID_1402_"/></g><g id="XMLID_953_"><g id="XMLID_141_"><path class="st6" d="M107.8 130.4H73.2c-.8 0-1.4.7-1.4 1.5s.6 1.5 1.4 1.5h34.6c.8 0 1.4-.7 1.4-1.5s-.6-1.5-1.4-1.5z" id="XMLID_142_"/></g><g id="XMLID_138_"><path class="st6" d="M107.8 136.3H73.2c-.8 0-1.4.7-1.4 1.5s.6 1.5 1.4 1.5h34.6c.8 0 1.4-.7 1.4-1.5s-.6-1.5-1.4-1.5z" id="XMLID_140_"/></g><g id="XMLID_136_"><path class="st6" d="M107.4 141.8H73.6c-.7 0-1.3.6-1.3 1.4 0 .8.6 1.4 1.3 1.4h33.8c.7 0 1.3-.6 1.3-1.4 0-.8-.6-1.4-1.3-1.4z" id="XMLID_137_"/></g></g></g><g id="XMLID_956_"><g id="XMLID_1390_"><g id="XMLID_1407_"><path class="st7" d="M84.8 54.4c-3.9-.1-4.8 3.1-4.8 3.1-6.2.3-6.9 3.8-6.9 3.8-4.8 1.5-4.6 6.4-4.6 6.4-3.5 2.8-1.8 6.5-1.8 6.5-2.9 3.3 0 7.1 0 7.1-.5 5.3 2.4 6.9 2.4 6.9 1.5 5.8 6.8 6 6.8 6C78.6 98.4 84 97 84 97c4.8-.1 5.5-5.9 5.5-5.9V58.3c-.4-.8-.8-3.7-4.7-3.9z" id="XMLID_1413_"/><path class="st0" d="M81.7 56.6s-2.9 3.2 0 6c0 0 2.6-.7 3.5-.3 0 0 .3.1.1.6 0 0-.7 1 .1 2.6 0 0 .2 1-.6.5 0 0-2.5-1.2-4-2.6 0 0-1.8-1.2-1.6-4.5 0 0-3.7-.5-5.5 3.5 0 0-4.1.8-3.9 5.4 0 0 .2 5.1 4.6 6.1 0 0 1.7.2 2.7 0 0 0-.6-2.2-.3-2.9.1-.3.8-1 1.3-.1 0 0-1 4.6 3.5 4.8 0 0 5.1-1.8 6.7-8.5v-8.8c.1-.1-2.2-4.8-6.6-1.8z" id="XMLID_1412_"/><path class="st0" d="M77.8 78c-1.5-.4-.8-3.5-.8-3.5-7.3 1.2-8.2-5.3-8.2-5.3-2.4 1.9-.8 5.4-.8 5.4-3.5 5.3 1 7.2 1 7.2 3.3 1.9 6.2-.3 6.2-.3l.6-.5c2.6 3.1 5.9 1.3 5.9 1.3l.8-1.6 1.4 2.9c-.7.6-1.5-.5-1.5-.5-4 2.2-6.9-.8-6.9-.8-.5.7-2.7 1.2-2.7 1.2-2.4.5-5.2-1.2-5.2-1.2-.3 3.1 2.4 5.2 2.4 5.2 1.7 5.4 5 5.5 5 5.5-2.1-5.1 1.5-8.4 1.5-8.4 1.1-.7 1.2.8 1.2.8-2.8 2.1-1.9 5.8-1.9 5.8.9 5.1 6.7 5.1 6.7 5.1 4.8.1 6-5.1 6-5.1v-20c-4 6.7-10.7 6.8-10.7 6.8z" id="XMLID_1410_"/></g></g><g id="XMLID_1297_"><g id="XMLID_1302_"><path class="st7" d="M114.3 74.3s1.7-3.7-1.8-6.5c0 0 .2-4.9-4.6-6.4 0 0-.7-3.5-6.9-3.8 0 0-1-3.3-4.8-3.1-3.9.1-4.4 3-4.8 3.9v32.8s.7 5.7 5.5 5.9c0 0 5.5 1.4 8.1-2.7 0 0 5.3-.2 6.8-6 0 0 3-1.6 2.4-6.9.1-.1 3-3.8.1-7.2z" id="XMLID_1312_"/><path class="st0" d="M107.2 62.3c-1.8-3.9-5.5-3.5-5.5-3.5.2 3.3-1.6 4.5-1.6 4.5-1.5 1.3-4 2.6-4 2.6-.8.6-.6-.5-.6-.5.8-1.5.1-2.6.1-2.6-.2-.5.1-.6.1-.6 1-.4 3.5.3 3.5.3 2.9-2.8 0-6 0-6-4.4-2.9-6.7 1.7-6.7 1.7V67c1.6 6.7 6.7 8.5 6.7 8.5 4.6-.1 3.5-4.8 3.5-4.8.5-.9 1.2-.2 1.3.1.3.7-.3 2.9-.3 2.9 1 .2 2.7 0 2.7 0 4.4-1 4.6-6.1 4.6-6.1.3-4.6-3.8-5.3-3.8-5.3z" id="XMLID_1306_"/><path class="st0" d="M99.3 82.4s3.3 1.9 5.9-1.3l.6.5s2.9 2.1 6.2.3c0 0 4.6-1.9 1-7.2 0 0 1.6-3.5-.8-5.4 0 0-.9 6.5-8.2 5.3 0 0 .7 3.1-.8 3.5 0 0-6.7-.1-10.6-6.9v20s1.1 5.2 6 5.1c0 0 5.8 0 6.7-5.1 0 0 .9-3.8-1.9-5.8 0 0 .1-1.5 1.2-.8 0 0 3.5 3.3 1.5 8.4 0 0 3.3-.1 5.1-5.3 0 0 2.6-2.1 2.4-5.2 0 0-2.8 1.7-5.2 1.2 0 0-2.2-.5-2.7-1.2 0 0-2.9 3-6.9.8 0 0-.8 1-1.5.5l1.4-2.9.6 1.5z" id="XMLID_1304_"/></g></g></g></g></svg>